<?xml version="1.0" encoding="UTF-8" standalone="no"?>
<!DOCTYPE svg PUBLIC "-//W3C//DTD SVG 1.1//EN"
 "http://www.w3.org/Graphics/SVG/1.1/DTD/svg11.dtd">
<!-- Generated by graphviz version 2.40.1 (20161225.0304)
 -->
<!-- Title: msvisualization Pages: 1 -->
<svg width="894pt" height="739pt"
 viewBox="0.00 0.00 894.00 738.97" xmlns="http://www.w3.org/2000/svg" xmlns:xlink="http://www.w3.org/1999/xlink">
<g id="graph0" class="graph" transform="scale(1 1) rotate(0) translate(4 734.9727)">
<title>msvisualization</title>
<polygon fill="#ffffff" stroke="transparent" points="-4,4 -4,-734.9727 890,-734.9727 890,4 -4,4"/>
<g id="clust1" class="cluster">
<title>cluster_legend</title>
<polygon fill="#ffffcc" stroke="#ffffcc" points="14,-646.874 14,-722.9727 393,-722.9727 393,-646.874 14,-646.874"/>
<text text-anchor="middle" x="203.5" y="-707.7727" font-family="Arial" font-size="14.00" fill="#000000">symbol explanation</text>
</g>
<g id="clust3" class="cluster">
<title>cluster_generic</title>
<polygon fill="#ccffcc" stroke="#ccffcc" points="144,-249.4932 144,-596.6768 286,-596.6768 286,-249.4932 144,-249.4932"/>
<text text-anchor="middle" x="215" y="-581.4768" font-family="Arial" font-size="14.00" fill="#000000">generic visualization</text>
</g>
<g id="clust4" class="cluster">
<title>cluster_external</title>
<polygon fill="#e6e6e6" stroke="#e6e6e6" points="8,-121.0986 8,-197.1973 270,-197.1973 270,-121.0986 8,-121.0986"/>
<text text-anchor="middle" x="139" y="-181.9973" font-family="Arial" font-size="14.00" fill="#000000">external services used</text>
</g>
<g id="clust5" class="cluster">
<title>cluster_thirdparty</title>
<polygon fill="#e6e6e6" stroke="#e6e6e6" points="294,-390.085 294,-466.1836 430,-466.1836 430,-390.085 294,-390.085"/>
<text text-anchor="middle" x="362" y="-450.9836" font-family="Arial" font-size="14.00" fill="#000000">third party</text>
</g>
<g id="clust6" class="cluster">
<title>cluster_visualized_system</title>
<polygon fill="#e6e6e6" stroke="#e6e6e6" points="651,-8 651,-466.1836 878,-466.1836 878,-8 651,-8"/>
<text text-anchor="middle" x="764.5" y="-450.9836" font-family="Arial" font-size="14.00" fill="#000000">visualized system</text>
</g>
<g id="clust7" class="cluster">
<title>cluster_custom_visualization</title>
<polygon fill="#ffb3da" stroke="#ffb3da" points="285,-119 285,-199.2959 531,-199.2959 531,-119 285,-119"/>
<text text-anchor="middle" x="408" y="-184.0959" font-family="Arial" font-size="14.00" fill="#000000">custom visualization</text>
</g>
<!-- library -->
<g id="node1" class="node">
<title>library</title>
<ellipse fill="#ffffff" stroke="#000000" cx="349" cy="-672.874" rx="36.3464" ry="18"/>
<text text-anchor="middle" x="349" y="-669.7233" font-family="Arial" font-size="14.00" fill="#000000">library</text>
</g>
<!-- service1 -->
<g id="node2" class="node">
<title>service1</title>
<polygon fill="#ffffff" stroke="#000000" points="90.131,-690.874 21.869,-690.874 21.869,-654.874 90.131,-654.874 90.131,-690.874"/>
<text text-anchor="middle" x="56" y="-669.7233" font-family="Arial" font-size="14.00" fill="#000000">service1</text>
</g>
<!-- service2 -->
<g id="node3" class="node">
<title>service2</title>
<polygon fill="#ffffff" stroke="#000000" points="241.131,-690.874 172.869,-690.874 172.869,-654.874 241.131,-654.874 241.131,-690.874"/>
<text text-anchor="middle" x="207" y="-669.7233" font-family="Arial" font-size="14.00" fill="#000000">service2</text>
</g>
<!-- service1&#45;&gt;service2 -->
<g id="edge1" class="edge">
<title>service1&#45;&gt;service2</title>
<path fill="none" stroke="#000000" d="M90.083,-657.6681C94.8948,-656.0631 99.8436,-654.6865 104.6587,-653.7754 128.1016,-649.3394 134.8984,-649.3394 158.3413,-653.7754 159.846,-654.0601 161.3638,-654.3903 162.8864,-654.7587"/>
<polygon fill="#000000" stroke="#000000" points="172.917,-657.6681 162.0593,-659.2042 168.1149,-656.2752 163.3129,-654.8823 163.3129,-654.8823 163.3129,-654.8823 168.1149,-656.2752 164.5665,-650.5605 172.917,-657.6681 172.917,-657.6681"/>
<text text-anchor="middle" x="131.5" y="-658.674" font-family="Arial" font-size="14.00" fill="#000000">sync call</text>
</g>
<!-- service1&#45;&gt;service2 -->
<g id="edge2" class="edge">
<title>service1&#45;&gt;service2</title>
<path fill="none" stroke="#0000ff" d="M90.2642,-672.874C111.6942,-672.874 139.5179,-672.874 162.6259,-672.874"/>
<polygon fill="#0000ff" stroke="#0000ff" points="162.8714,-676.3741 172.8714,-672.874 162.8713,-669.3741 162.8714,-676.3741"/>
<text text-anchor="middle" x="131.5" y="-680.7727" font-family="Arial" font-size="14.00" fill="#000000">async flow</text>
</g>
<!-- service2&#45;&gt;library -->
<g id="edge3" class="edge">
<title>service2&#45;&gt;library</title>
<path fill="none" stroke="#000000" stroke-dasharray="5,2" d="M241.3742,-672.874C259.6872,-672.874 282.4768,-672.874 302.3641,-672.874"/>
<polygon fill="#000000" stroke="#000000" points="312.4603,-672.874 302.4603,-677.3741 307.4603,-672.8741 302.4603,-672.8741 302.4603,-672.8741 302.4603,-672.8741 307.4603,-672.8741 302.4603,-668.3741 312.4603,-672.874 312.4603,-672.874"/>
<text text-anchor="middle" x="276.8212" y="-680.7727" font-family="Arial" font-size="14.00" fill="#000000">use</text>
</g>
<!-- user -->
<g id="node4" class="node">
<title>user</title>
<polygon fill="#ffffff" stroke="#000000" points="447.8664,-654.9234 449.7642,-655.0219 451.6424,-655.1694 453.4933,-655.3654 455.3094,-655.6094 457.0834,-655.9007 458.8084,-656.2385 460.4776,-656.6219 462.0846,-657.0499 463.6235,-657.5212 465.0888,-658.0347 466.4754,-658.5888 467.7785,-659.182 468.9942,-659.8128 470.1188,-660.4794 471.1493,-661.18 472.083,-661.9126 472.9179,-662.6752 473.6527,-663.4658 474.2864,-664.2822 474.8185,-665.1222 475.2491,-665.9834 475.5789,-666.8634 475.809,-667.76 475.9407,-668.6706 475.9762,-669.5927 475.9176,-670.5237 475.7678,-671.4613 475.5297,-672.4027 475.2065,-673.3454 474.8019,-674.2868 474.3195,-675.2243 473.7634,-676.1554 473.1375,-677.0775 472.446,-677.9881 471.6931,-678.8846 470.883,-679.7647 470.0199,-680.6259 469.1079,-681.4658 468.1511,-682.2822 467.1535,-683.0728 466.1188,-683.8355 465.0507,-684.5681 463.9527,-685.2687 462.8281,-685.9352 461.68,-686.566 460.5112,-687.1593 459.3243,-687.7134 458.1219,-688.2268 456.9061,-688.6982 455.679,-689.1261 454.4423,-689.5096 453.1977,-689.8474 451.9465,-690.1387 450.6901,-690.3827 449.4297,-690.5787 448.1661,-690.7261 446.9005,-690.8247 445.6336,-690.874 444.3664,-690.874 443.0995,-690.8247 441.8339,-690.7261 440.5703,-690.5787 439.3099,-690.3827 438.0535,-690.1387 436.8023,-689.8474 435.5577,-689.5096 434.321,-689.1261 433.0939,-688.6982 431.8781,-688.2268 430.6757,-687.7134 429.4888,-687.1593 428.32,-686.566 427.1719,-685.9352 426.0473,-685.2687 424.9493,-684.5681 423.8812,-683.8355 422.8465,-683.0728 421.8489,-682.2822 420.8921,-681.4658 419.9801,-680.6259 419.117,-679.7647 418.3069,-678.8846 417.554,-677.9881 416.8625,-677.0775 416.2366,-676.1554 415.6805,-675.2243 415.1981,-674.2868 414.7935,-673.3454 414.4703,-672.4027 414.2322,-671.4613 414.0824,-670.5237 414.0238,-669.5927 414.0593,-668.6706 414.191,-667.76 414.4211,-666.8634 414.7509,-665.9834 415.1815,-665.1222 415.7136,-664.2822 416.3473,-663.4658 417.0821,-662.6752 417.917,-661.9126 418.8507,-661.18 419.8812,-660.4794 421.0058,-659.8128 422.2215,-659.182 423.5246,-658.5888 424.9112,-658.0347 426.3765,-657.5212 427.9154,-657.0499 429.5224,-656.6219 431.1916,-656.2385 432.9166,-655.9007 434.6906,-655.6094 436.5067,-655.3654 438.3576,-655.1694 440.2358,-655.0219 442.1336,-654.9234 444.0432,-654.874 445.9568,-654.874 447.8664,-654.9234"/>
<text text-anchor="middle" x="445" y="-669.7233" font-family="Arial" font-size="14.00" fill="#000000">user</text>
</g>
<!-- msanalyzer -->
<g id="node5" class="node">
<title>msanalyzer</title>
<polygon fill="#ffffff" stroke="#000000" points="277.9443,-313.9378 160.0557,-313.9378 160.0557,-257.3444 277.9443,-257.3444 277.9443,-313.9378"/>
<text text-anchor="middle" x="219" y="-298.5891" font-family="Arial" font-size="14.00" fill="#000000">tadis&#45;analyzer</text>
<text text-anchor="middle" x="219" y="-282.4904" font-family="Arial" font-size="14.00" fill="#000000">(microservice</text>
<text text-anchor="middle" x="219" y="-266.3918" font-family="Arial" font-size="14.00" fill="#000000">&amp; npm package)</text>
</g>
<!-- user&#45;&gt;msanalyzer -->
<g id="edge15" class="edge">
<title>user&#45;&gt;msanalyzer</title>
<path fill="none" stroke="#000000" d="M450.1497,-654.7709C462.6179,-606.9337 489.494,-475.0217 434,-390.085 401.3367,-340.0919 337.4569,-313.3008 287.7777,-299.4239"/>
<polygon fill="#000000" stroke="#000000" points="278.0447,-296.8177 288.8683,-295.0575 282.8745,-298.111 287.7043,-299.4043 287.7043,-299.4043 287.7043,-299.4043 282.8745,-298.111 286.5403,-303.7512 278.0447,-296.8177 278.0447,-296.8177"/>
<text text-anchor="middle" x="516.4033" y="-495.1809" font-family="Arial" font-size="14.00" fill="#000000">update source</text>
<text text-anchor="middle" x="516.4033" y="-479.0822" font-family="Arial" font-size="14.00" fill="#000000">(/collect/source)</text>
</g>
<!-- msvisualizer -->
<g id="node6" class="node">
<title>msvisualizer</title>
<polygon fill="#ffffff" stroke="#000000" points="277.8897,-564.6772 174.1103,-564.6772 174.1103,-524.2817 277.8897,-524.2817 277.8897,-564.6772"/>
<text text-anchor="middle" x="226" y="-549.3781" font-family="Arial" font-size="14.00" fill="#000000">tadis&#45;ui</text>
<text text-anchor="middle" x="226" y="-533.2795" font-family="Arial" font-size="14.00" fill="#000000">(microservice)</text>
</g>
<!-- user&#45;&gt;msvisualizer -->
<g id="edge14" class="edge">
<title>user&#45;&gt;msvisualizer</title>
<path fill="none" stroke="#000000" d="M421.3462,-659.3734C413.6735,-655.1805 405.0607,-650.6674 397,-646.874 386.2468,-641.8135 382.7774,-642.2928 372.2002,-636.874 333.5728,-617.0851 291.9556,-590.1865 263.0398,-570.5161"/>
<polygon fill="#000000" stroke="#000000" points="254.4911,-564.6594 265.2841,-566.5989 258.6159,-567.4853 262.7408,-570.3113 262.7408,-570.3113 262.7408,-570.3113 258.6159,-567.4853 260.1975,-574.0236 254.4911,-564.6594 254.4911,-564.6594"/>
<text text-anchor="middle" x="403.8999" y="-625.674" font-family="Arial" font-size="14.00" fill="#000000">browser</text>
<text text-anchor="middle" x="403.8999" y="-609.5754" font-family="Arial" font-size="14.00" fill="#000000">/tadis/html</text>
</g>
<!-- k8s -->
<g id="node7" class="node">
<title>k8s</title>
<polygon fill="#ffffff" stroke="#000000" points="261.769,-165.0986 176.231,-165.0986 176.231,-129.0986 261.769,-129.0986 261.769,-165.0986"/>
<text text-anchor="middle" x="219" y="-143.9479" font-family="Arial" font-size="14.00" fill="#000000">kubernetes</text>
</g>
<!-- msanalyzer&#45;&gt;k8s -->
<g id="edge5" class="edge">
<title>msanalyzer&#45;&gt;k8s</title>
<path fill="none" stroke="#000000" d="M219,-257.2707C219,-233.3802 219,-199.3775 219,-175.4831"/>
<polygon fill="#000000" stroke="#000000" points="219,-165.2885 223.5001,-175.2885 219,-170.2885 219.0001,-175.2885 219.0001,-175.2885 219.0001,-175.2885 219,-170.2885 214.5001,-175.2885 219,-165.2885 219,-165.2885"/>
<text text-anchor="middle" x="274.6274" y="-228.2932" font-family="Arial" font-size="14.00" fill="#000000">discover services,</text>
<text text-anchor="middle" x="274.6274" y="-212.1945" font-family="Arial" font-size="14.00" fill="#000000">get env variables</text>
</g>
<!-- git -->
<g id="node8" class="node">
<title>git</title>
<polygon fill="#ffffff" stroke="#000000" points="70,-165.0986 16,-165.0986 16,-129.0986 70,-129.0986 70,-165.0986"/>
<text text-anchor="middle" x="43" y="-143.9479" font-family="Arial" font-size="14.00" fill="#000000">git</text>
</g>
<!-- msanalyzer&#45;&gt;git -->
<g id="edge7" class="edge">
<title>msanalyzer&#45;&gt;git</title>
<path fill="none" stroke="#000000" d="M159.8645,-275.9229C134.5529,-269.2428 106.1644,-258.074 85.6416,-239.4932 66.8196,-222.4522 55.6915,-195.4247 49.5508,-174.9945"/>
<polygon fill="#000000" stroke="#000000" points="46.8525,-165.2843 53.8657,-173.7143 48.1912,-170.1018 49.53,-174.9192 49.53,-174.9192 49.53,-174.9192 48.1912,-170.1018 45.1943,-176.1241 46.8525,-165.2843 46.8525,-165.2843"/>
<text text-anchor="middle" x="104.6792" y="-228.2932" font-family="Arial" font-size="14.00" fill="#000000">clone,</text>
<text text-anchor="middle" x="104.6792" y="-212.1945" font-family="Arial" font-size="14.00" fill="#000000">fetch</text>
</g>
<!-- rabbitmq -->
<g id="node9" class="node">
<title>rabbitmq</title>
<polygon fill="#ffffff" stroke="#000000" points="158.4703,-165.0986 87.5297,-165.0986 87.5297,-129.0986 158.4703,-129.0986 158.4703,-165.0986"/>
<text text-anchor="middle" x="123" y="-143.9479" font-family="Arial" font-size="14.00" fill="#000000">rabbitmq</text>
</g>
<!-- msanalyzer&#45;&gt;rabbitmq -->
<g id="edge8" class="edge">
<title>msanalyzer&#45;&gt;rabbitmq</title>
<path fill="none" stroke="#000000" d="M159.8127,-259.4204C152.0311,-253.8161 144.8972,-247.2068 139.4971,-239.4932 126.4083,-220.7971 122.7035,-194.9016 122.0324,-175.2811"/>
<polygon fill="#000000" stroke="#000000" points="121.9314,-165.112 126.5306,-175.0667 121.9811,-170.1118 122.0308,-175.1115 122.0308,-175.1115 122.0308,-175.1115 121.9811,-170.1118 117.5311,-175.1563 121.9314,-165.112 121.9314,-165.112"/>
<text text-anchor="middle" x="177.7515" y="-220.2438" font-family="Arial" font-size="14.00" fill="#000000">get bindings</text>
</g>
<!-- source -->
<g id="node14" class="node">
<title>source</title>
<path fill="#ffffff" stroke="#000000" d="M401.1072,-161.8259C401.1072,-163.6317 376.8555,-165.0986 347,-165.0986 317.1445,-165.0986 292.8928,-163.6317 292.8928,-161.8259 292.8928,-161.8259 292.8928,-132.3714 292.8928,-132.3714 292.8928,-130.5655 317.1445,-129.0986 347,-129.0986 376.8555,-129.0986 401.1072,-130.5655 401.1072,-132.3714 401.1072,-132.3714 401.1072,-161.8259 401.1072,-161.8259"/>
<path fill="none" stroke="#000000" d="M401.1072,-161.8259C401.1072,-160.0201 376.8555,-158.5532 347,-158.5532 317.1445,-158.5532 292.8928,-160.0201 292.8928,-161.8259"/>
<text text-anchor="middle" x="347" y="-143.9479" font-family="Arial" font-size="14.00" fill="#000000">source storage</text>
</g>
<!-- msanalyzer&#45;&gt;source -->
<g id="edge6" class="edge">
<title>msanalyzer&#45;&gt;source</title>
<path fill="none" stroke="#000000" d="M278.137,-273.4994C297.6795,-266.6396 317.7807,-255.9844 331,-239.4932 345.4136,-221.5121 348.7791,-195.1654 348.9077,-175.203"/>
<polygon fill="#000000" stroke="#000000" points="348.7087,-165.144 353.4057,-175.053 348.8076,-170.1431 348.9066,-175.1421 348.9066,-175.1421 348.9066,-175.1421 348.8076,-170.1431 344.4074,-175.2311 348.7087,-165.144 348.7087,-165.144"/>
<text text-anchor="middle" x="369.1274" y="-228.2932" font-family="Arial" font-size="14.00" fill="#000000">store,</text>
<text text-anchor="middle" x="369.1274" y="-212.1945" font-family="Arial" font-size="14.00" fill="#000000">analyze</text>
</g>
<!-- msvisualizer&#45;&gt;msanalyzer -->
<g id="edge9" class="edge">
<title>msvisualizer&#45;&gt;msanalyzer</title>
<path fill="none" stroke="#000000" d="M216.579,-524.0633C209.9658,-508.5594 201.7019,-486.5111 198.2002,-466.1836 189.7792,-417.2987 199.5464,-360.3639 208.3378,-323.7041"/>
<polygon fill="#000000" stroke="#000000" points="210.7756,-313.9254 212.723,-324.717 209.5661,-318.7769 208.3566,-323.6284 208.3566,-323.6284 208.3566,-323.6284 209.5661,-318.7769 203.9902,-322.5398 210.7756,-313.9254 210.7756,-313.9254"/>
<text text-anchor="middle" x="243.8999" y="-412.9343" font-family="Arial" font-size="14.00" fill="#000000">/collect/system</text>
</g>
<!-- d3graphviz -->
<g id="node10" class="node">
<title>d3graphviz</title>
<ellipse fill="#ffffff" stroke="#000000" cx="362" cy="-416.085" rx="60.0051" ry="18"/>
<text text-anchor="middle" x="362" y="-412.9343" font-family="Arial" font-size="14.00" fill="#000000">d3&#45;graphviz</text>
</g>
<!-- msvisualizer&#45;&gt;d3graphviz -->
<g id="edge16" class="edge">
<title>msvisualizer&#45;&gt;d3graphviz</title>
<path fill="none" stroke="#000000" stroke-dasharray="5,2" d="M247.5496,-524.135C271.5782,-501.4502 310.4293,-464.7717 336.0938,-440.5424"/>
<polygon fill="#000000" stroke="#000000" points="343.6043,-433.4519 339.422,-443.5889 339.9686,-436.8844 336.3328,-440.3168 336.3328,-440.3168 336.3328,-440.3168 339.9686,-436.8844 333.2436,-437.0446 343.6043,-433.4519 343.6043,-433.4519"/>
<text text-anchor="middle" x="330.293" y="-487.1315" font-family="Arial" font-size="14.00" fill="#000000">create svg</text>
</g>
<!-- ms1 -->
<g id="node11" class="node">
<title>ms1</title>
<polygon fill="#ffffff" stroke="#000000" points="713,-165.0986 659,-165.0986 659,-129.0986 713,-129.0986 713,-165.0986"/>
<text text-anchor="middle" x="686" y="-143.9479" font-family="Arial" font-size="14.00" fill="#000000">ms 1</text>
</g>
<!-- ms2 -->
<g id="node12" class="node">
<title>ms2</title>
<polygon fill="#ffffff" stroke="#000000" points="745,-52 691,-52 691,-16 745,-16 745,-52"/>
<text text-anchor="middle" x="718" y="-30.8493" font-family="Arial" font-size="14.00" fill="#000000">ms 2</text>
</g>
<!-- ms1&#45;&gt;ms2 -->
<g id="edge4" class="edge">
<title>ms1&#45;&gt;ms2</title>
<path fill="none" stroke="#0000ff" d="M691.1414,-128.9274C696.2732,-110.7899 704.2268,-82.6792 710.1487,-61.749"/>
<polygon fill="#0000ff" stroke="#0000ff" points="713.5166,-62.7013 712.8714,-52.1262 706.781,-60.7955 713.5166,-62.7013"/>
</g>
<!-- ci -->
<g id="node13" class="node">
<title>ci</title>
<polygon fill="#ffffff" stroke="#000000" points="741.1515,-434.085 658.8485,-434.085 658.8485,-398.085 741.1515,-398.085 741.1515,-434.085"/>
<text text-anchor="middle" x="700" y="-412.9343" font-family="Arial" font-size="14.00" fill="#000000">CI pipeline</text>
</g>
<!-- ci&#45;&gt;msanalyzer -->
<g id="edge11" class="edge">
<title>ci&#45;&gt;msanalyzer</title>
<path fill="none" stroke="#000000" d="M658.6004,-413.7236C603.698,-409.8409 510.5979,-400.4132 483.7383,-380.085 464.8206,-365.7674 479.7483,-346.3277 461,-331.7891 434.5461,-311.275 349.9617,-298.5939 288.2274,-291.8367"/>
<polygon fill="#000000" stroke="#000000" points="278.1436,-290.7629 288.5639,-287.3471 283.1155,-291.2924 288.0874,-291.8218 288.0874,-291.8218 288.0874,-291.8218 283.1155,-291.2924 287.6108,-296.2965 278.1436,-290.7629 278.1436,-290.7629"/>
<text text-anchor="middle" x="517.6309" y="-368.885" font-family="Arial" font-size="14.00" fill="#000000">3. compute</text>
<text text-anchor="middle" x="517.6309" y="-352.7863" font-family="Arial" font-size="14.00" fill="#000000">consumer</text>
<text text-anchor="middle" x="517.6309" y="-336.6877" font-family="Arial" font-size="14.00" fill="#000000">services</text>
</g>
<!-- ci&#45;&gt;msanalyzer -->
<g id="edge13" class="edge">
<title>ci&#45;&gt;msanalyzer</title>
<path fill="none" stroke="#000000" d="M658.7347,-407.9636C627.6487,-401.1548 588.3054,-390.8426 575.7041,-380.085 557.665,-364.6851 572.1045,-345.8454 553,-331.7891 512.1661,-301.7451 373.6884,-291.2307 288.3913,-287.5722"/>
<polygon fill="#000000" stroke="#000000" points="278.2629,-287.1592 288.438,-283.0704 283.2588,-287.3629 288.2546,-287.5667 288.2546,-287.5667 288.2546,-287.5667 283.2588,-287.3629 288.0712,-292.063 278.2629,-287.1592 278.2629,-287.1592"/>
<text text-anchor="middle" x="627.1479" y="-352.7863" font-family="Arial" font-size="14.00" fill="#000000">2. update source</text>
</g>
<!-- ci&#45;&gt;ms1 -->
<g id="edge10" class="edge">
<title>ci&#45;&gt;ms1</title>
<path fill="none" stroke="#000000" d="M699.0597,-398.0183C696.6744,-352.1894 690.3732,-231.1218 687.4847,-175.6243"/>
<polygon fill="#000000" stroke="#000000" points="686.9547,-165.4408 691.9684,-175.1934 687.2146,-170.4341 687.4745,-175.4273 687.4745,-175.4273 687.4745,-175.4273 687.2146,-170.4341 682.9806,-175.6612 686.9547,-165.4408 686.9547,-165.4408"/>
<text text-anchor="middle" x="716.5723" y="-282.4904" font-family="Arial" font-size="14.00" fill="#000000">1. build</text>
</g>
<!-- ci&#45;&gt;ms2 -->
<g id="edge12" class="edge">
<title>ci&#45;&gt;ms2</title>
<path fill="none" stroke="#000000" d="M711.6123,-397.8865C726.1023,-373.3879 749,-327.9764 749,-285.6411 749,-285.6411 749,-285.6411 749,-89.5 749,-79.3429 744.9936,-69.3159 739.8614,-60.6383"/>
<polygon fill="#000000" stroke="#000000" points="734.2263,-52.1348 743.5015,-57.9848 736.9883,-56.3027 739.7503,-60.4706 739.7503,-60.4706 739.7503,-60.4706 736.9883,-56.3027 735.9992,-62.9564 734.2263,-52.1348 734.2263,-52.1348"/>
<text text-anchor="middle" x="809.3032" y="-151.9973" font-family="Arial" font-size="14.00" fill="#000000">4. trigger consumer</text>
<text text-anchor="middle" x="809.3032" y="-135.8986" font-family="Arial" font-size="14.00" fill="#000000">integration tests</text>
</g>
<!-- customanalyzer -->
<g id="node15" class="node">
<title>customanalyzer</title>
<polygon fill="#ffffff" stroke="#000000" points="522.6515,-167.2964 419.3485,-167.2964 419.3485,-126.9009 522.6515,-126.9009 522.6515,-167.2964"/>
<text text-anchor="middle" x="471" y="-151.9973" font-family="Arial" font-size="14.00" fill="#000000">tadis&#45;analyzer</text>
<text text-anchor="middle" x="471" y="-135.8986" font-family="Arial" font-size="14.00" fill="#000000">&#45;custom</text>
</g>
<!-- customanalyzer&#45;&gt;msanalyzer -->
<g id="edge17" class="edge">
<title>customanalyzer&#45;&gt;msanalyzer</title>
<path fill="none" stroke="#000000" stroke-dasharray="5,2" d="M460.1595,-167.2231C447.7044,-188.4085 425.2918,-221.1754 397,-239.4932 364.5609,-260.4961 323.0005,-271.9547 288.1979,-278.199"/>
<polygon fill="#000000" stroke="#000000" points="278.1044,-279.8999 287.2176,-273.8006 283.0349,-279.069 287.9654,-278.2381 287.9654,-278.2381 287.9654,-278.2381 283.0349,-279.069 288.7132,-282.6755 278.1044,-279.8999 278.1044,-279.8999"/>
<text text-anchor="middle" x="472.0273" y="-228.2932" font-family="Arial" font-size="14.00" fill="#000000">import</text>
<text text-anchor="middle" x="472.0273" y="-212.1945" font-family="Arial" font-size="14.00" fill="#000000">npm package</text>
</g>
</g>
</svg>
